<?xml version="1.0" encoding="UTF-8"?>
<svg id="Layer_2" data-name="Layer 2" xmlns="http://www.w3.org/2000/svg" viewBox="0 0 189.64 38.24">
  <g id="Layer_1-2" data-name="Layer 1">
    <g id="logo">
      <g>
        <polygon points="43.11 8.63 35.55 17.1 37.21 8.63 31.62 8.63 27.41 30.16 33.01 30.16 34.73 21.39 39.78 30.16 46.74 30.16 40.09 19.33 49.89 8.63 43.11 8.63"/>
        <polygon points="58.78 16.91 56.6 8.63 50.25 8.63 55.09 21.51 53.39 30.16 59.29 30.16 60.95 21.54 70.88 8.63 64.37 8.63 58.78 16.91"/>
        <polygon points="98.25 1.91 88.72 23.24 88.48 8.63 83.18 8.63 77.2 23.27 77.5 8.63 71.6 8.63 72.33 30.16 78.74 30.16 84.33 16.64 84.61 30.16 90.81 30.16 104.22 1.91 98.25 1.91"/>
        <path d="M119.79,15.92c0-2.74-.72-4.74-2.16-6-1.44-1.26-3.6-1.89-6.49-1.89-1.61,0-3.05.19-4.31.56-1.26.37-2.36.99-3.31,1.85s-1.74,1.99-2.39,3.39c-.65,1.4-1.15,3.14-1.51,5.22-.12.71-.22,1.38-.29,2.01-.07.64-.11,1.23-.11,1.8,0,2.74.73,4.74,2.18,5.99,1.45,1.25,3.62,1.88,6.5,1.88,1.61,0,3.05-.19,4.31-.56,1.26-.37,2.36-.99,3.3-1.85.94-.86,1.73-1.99,2.37-3.39.65-1.4,1.16-3.13,1.54-5.19.24-1.39.36-2.66.36-3.81h0ZM113.65,17.63c-.06.58-.16,1.22-.3,1.95-.24,1.31-.49,2.37-.76,3.19-.26.82-.59,1.45-.97,1.89-.38.44-.84.74-1.38.89-.53.15-1.18.23-1.92.23-.5,0-.95-.05-1.33-.14s-.7-.25-.95-.48c-.25-.23-.44-.55-.56-.95-.12-.4-.18-.92-.18-1.54,0-.46.03-.98.09-1.56.06-.58.16-1.22.3-1.95.24-1.31.49-2.37.76-3.19.26-.82.58-1.45.95-1.89.37-.44.82-.74,1.35-.89.52-.15,1.17-.23,1.94-.23,1.01,0,1.77.21,2.28.64.51.42.77,1.25.77,2.48,0,.46-.03.98-.09,1.56h0Z"/>
        <path d="M137.55,20.21c.88-.95,1.46-2.27,1.74-3.96.06-.3.1-.6.12-.91.02-.3.03-.58.03-.85,0-1.05-.19-1.94-.56-2.68-.37-.74-.91-1.34-1.6-1.81-.7-.47-1.53-.82-2.51-1.04s-2.08-.33-3.31-.33h-7.89l-4.2,21.53h5.54l1.36-7.02h2.96l4.89,13.68h6.71l-6.43-14.53c1.23-.44,2.28-1.14,3.16-2.09h0ZM133.66,16.22c-.1.46-.23.84-.39,1.13-.16.29-.38.52-.67.69-.28.17-.65.29-1.09.36-.44.07-.98.11-1.6.11h-2.75l1.03-5.2h2.72c.97,0,1.68.14,2.15.42.46.28.7.79.7,1.51,0,.28-.03.6-.09.97h0Z"/>
        <path d="M175.28,10.47h0c-1.41-1.25-3.49-1.87-6.24-1.87h-10.35l-2.88,16.57-.86,4.96h10.94c1.45,0,2.79-.15,4.03-.44,1.23-.29,2.33-.83,3.3-1.6.96-.78,1.77-1.84,2.44-3.21.66-1.36,1.15-3.11,1.47-5.25.09-.56.15-1.11.2-1.63.04-.52.07-1.03.07-1.51,0-2.76-.7-4.77-2.11-6.02ZM171.88,19.36c-.21,1.27-.46,2.29-.74,3.05-.28.77-.63,1.36-1.06,1.77-.42.41-.93.68-1.51.8-.58.12-1.26.18-2.04.18h-5.55l2.03-11.61h5.4c.62,0,1.16.04,1.63.13.47.09.86.25,1.17.48.31.23.54.56.69.99.15.42.23.97.23,1.63,0,.72-.08,1.58-.24,2.57Z"/>
      </g>
      <path d="M25.09,8.44c-.51-.01-.98-.02-1.42-.02h-1.51c-1.26,0-2.43.09-3.52.26-1.09.17-2.05.48-2.89.93-.84.45-1.55,1.05-2.12,1.81-.57.76-.95,1.73-1.16,2.91-.12.65-.18,1.25-.18,1.8,0,.59.08,1.14.24,1.65.16.51.43.98.81,1.4.38.43.87.81,1.49,1.16s1.39.66,2.3.94l2.62.79c.51.16.89.35,1.14.56.25.21.38.51.38.9v.23c0,.07-.01.16-.03.26-.12.61-.42,1-.9,1.19-.48.18-1.22.27-2.24.27,0,0-4.76-.11-6.31-.13l-1.85,4.71c.5.05.27.08.78.08v.05c1.41.01,2.67.02,3.12.03,1.2.01,2.33.02,3.41.02,1.54,0,2.88-.1,4.02-.31,1.14-.2,2.1-.54,2.89-1.01.79-.47,1.42-1.08,1.89-1.84.47-.76.81-1.7,1.03-2.82.12-.63.18-1.23.18-1.8,0-1.18-.35-2.21-1.03-3.09-.69-.88-1.92-1.6-3.69-2.15l-2.8-.88c-.51-.16-.88-.34-1.11-.53s-.35-.46-.35-.81c0-.12,0-.23.01-.32.01-.09.02-.19.05-.29.1-.45.35-.76.76-.94.41-.18.98-.27,1.74-.27.91,0,1.89,0,2.92.02,1.03.01,2.33.03,3.9.05l1.83-4.72c-1.08-.02-1.95-.04-2.63-.05s-1.27-.02-1.78-.03h0Z"/>
      <path d="M177.31,0h-68.66l-2.25,4.67h70.91c4.23,0,7.67,3.44,7.67,7.67v13.57c0,4.23-3.44,7.67-7.67,7.67h-34.69l1.9,4.67h32.79c6.8,0,12.34-5.54,12.34-12.34v-13.57c0-6.8-5.53-12.34-12.34-12.34Z"/>
      <path d="M12.34,0h83.69l-2.06,4.67H12.34c-4.23,0-7.67,3.44-7.67,7.67v13.57c0,4.23,3.44,7.67,7.67,7.67h116.98l1.46,4.67H12.34c-6.8,0-12.34-5.53-12.34-12.34v-13.57C0,5.54,5.54,0,12.34,0Z"/>
      <polygon points="153.87 25.17 152.89 30.13 139.29 30.13 143.49 8.6 149.39 8.6 146.15 25.17 153.87 25.17"/>
    </g>
  </g>
</svg>